<?xml version="1.0" encoding="UTF-8" standalone="no"?>
<svg
   width="64"
   height="64"
   viewBox="0 0 64 64"
   version="1.1"
   id="svg6"
   xmlns="http://www.w3.org/2000/svg"
   xmlns:svg="http://www.w3.org/2000/svg">
  <defs
     id="defs6" />
  <rect
     width="56.001999"
     height="56.001999"
     x="4"
     y="3.9690001"
     fill="#f2f2f2"
     rx="13.002"
     ry="13.002"
     style="fill:#b6a98b;fill-opacity:1"
     id="rect1" />
  <path
     d="m 3.998,45.998 v 1 c 0,7.203 5.8,13.004 13.004,13.004 h 29.996 c 7.203,0 13.004,-5.8 13.004,-13.004 v -1 C 60.002,53.201 54.202,59 46.998,59 H 17.002 A 12.975,12.975 0 0 1 3.998,45.998"
     opacity=".1"
     style="opacity:0.15"
     id="path1" />
  <path
     fill="#ffffff"
     d="m 3.998,18.004 v -1 C 3.998,9.801 9.798,4 17.002,4 h 29.996 c 7.203,0 13.004,5.8 13.004,13.004 v 1 c 0,-7.203 -5.8,-13.002 -13.004,-13.002 H 17.002 A 12.975,12.975 0 0 0 3.998,18.004"
     opacity=".5"
     style="opacity:0.15"
     id="path2" />
  <rect
     width="50"
     height="50"
     x="7"
     y="7"
     fill="#8e74dc"
     rx="10"
     ry="10"
     style="fill:#202025;fill-opacity:1"
     id="rect2" />
  <rect
     width="34"
     height="34"
     x="15"
     y="15"
     fill="#f2f2f2"
     rx="3"
     ry="3"
     style="fill:#e3e4e3;fill-opacity:1"
     id="rect3" />
  <path
     fill="#9aa0aa"
     d="m 34,42 c -0.554,0 -1,0.335 -1,0.75 V 45 h 1 v -2 h 1 v 2 h 1 v -2 h 1 v 2 h 1 V 42.75 C 38,42.335 37.554,42 37,42 Z m 8,0 c -0.554,0 -1,0.335 -1,0.75 v 1.5 c 0,0.415 0.446,0.75 1,0.75 h 3 c 0.554,0 1,-0.335 1,-0.75 v -1.5 C 46,42.335 45.554,42 45,42 Z m -2.5,1 a 0.5,0.5 0 1 0 0,1 0.5,0.5 0 1 0 0,-1 m 2.5,0 h 3 v 1 h -3 z"
     style="fill:#525252;fill-opacity:1"
     id="path3" />
  <path
     fill="#333"
     d="m 22,15 v 5 c 0,1.662 1.338,3 3,3 h 14 c 1.662,0 3,-1.338 3,-3 v -5 z"
     style="fill:#0d0d0c;fill-opacity:1"
     id="path4" />
  <path
     fill="#fbe604"
     d="m 26,19 v 1 h 4 v -1 z m 8,0 v 1 h 4 v -1 z"
     style="fill:#f4de72;fill-opacity:1"
     id="path5" />
  <path
     d="m 24.828,34.51 h -1.672 l -3.614,-3.422 h -0.04 l 0.075,0.41 0.02,3.012 h -1.596 v -5.071 h 1.675 l 3.61,3.422 h 0.038 l -0.075,-0.417 -0.024,-3.005 h 1.6 z m 7.074,0 h -5.745 v -5.071 h 5.71 v 1.06 h -4.066 v 0.929 h 3.727 v 1.06 h -3.727 v 0.965 h 4.104 z m 0.476,-5.071 h 1.956 l 1.534,1.814 1.538,-1.814 h 1.946 l -2.367,2.503 2.58,2.571 h -1.943 l -1.757,-1.86 -1.744,1.86 h -1.949 l 2.576,-2.574 z m 13.62,1.06 h -2.436 v 4.01 H 41.89 V 30.5 H 39.455 V 29.44 H 46 Z"
     aria-label="NEXT"
     style="font-weight:700;font-family:'FONTSPRING DEMO - Heading Pro Ultra Wide ExBold';-inkscape-font-specification:'FONTSPRING DEMO - Heading Pro Ultra Wide ExBold Bold';opacity:1;fill:#ac9250;fill-opacity:1;stroke-width:0.0463534"
     id="path6" />
</svg>
